<svg width="58" height="52" viewBox="0 0 58 52" fill="none" xmlns="http://www.w3.org/2000/svg">
<path fill-rule="evenodd" clip-rule="evenodd" d="M10.3333 0.5C6.55824 0.5 3.5 3.55824 3.5 7.33333V32.7784C1.94029 33.3808 0.833344 34.895 0.833344 36.6667V39.3333C0.833344 41.6338 2.69958 43.5 5.00001 43.5H35.5V47.3333C35.5 49.6338 37.3662 51.5 39.6667 51.5H53C55.3004 51.5 57.1667 49.6338 57.1667 47.3333V24.6667C57.1667 22.3662 55.3004 20.5 53 20.5H51.8333V7.33333C51.8333 3.55824 48.7751 0.5 45 0.5H10.3333ZM54.1667 40.5V24.6667C54.1667 24.0231 53.6436 23.5 53 23.5H39.6667C39.0231 23.5 38.5 24.0231 38.5 24.6667V33.9941L38.5 34L38.5 34.0059V40.5H54.1667ZM38.5 43.5H54.1667V47.3333C54.1667 47.9769 53.6436 48.5 53 48.5H39.6667C39.0231 48.5 38.5 47.9769 38.5 47.3333V43.5ZM48.8333 7.33333V20.5H39.6667C37.3662 20.5 35.5 22.3662 35.5 24.6667V32.5H6.5V7.33333C6.5 5.21509 8.21509 3.5 10.3333 3.5H45C47.1182 3.5 48.8333 5.21509 48.8333 7.33333ZM5.00001 35.5H35.5V40.5H5.00001C4.35644 40.5 3.83334 39.9769 3.83334 39.3333V36.6667C3.83334 36.0231 4.35644 35.5 5.00001 35.5Z" fill="#FBAB34"/>
</svg>
